<svg version="1" xmlns="http://www.w3.org/2000/svg" width="346.667" height="346.667" viewBox="0 0 260.000000 260.000000"><path d="M175.2 64.6c-20 3.4-34.8 21.5-39.1 48-1.6 10.1-1.1 31.3 1 40.6 4 17.3 14.1 32.3 25.7 38.2 15.5 7.9 36.4 5.5 48.4-5.5 6.5-5.9 14.8-22.7 14.8-29.8 0-1.5-5.3-4-18.1-8.6-1.3-.5-2.1.9-3.8 6.2-4.4 13.7-12 20.4-22.5 19.8-12.6-.6-20.6-10.1-23.4-27.5-1.7-10.3-.8-32.3 1.7-40 4.8-15.4 16.2-22.6 29.5-18.9 6.6 1.8 15.5 12.7 15.6 19 0 1.4 1.5 1.1 10.5-1.5 12.1-3.5 11.9-3.2 7.9-13.4-3.4-8.4-5.5-11.6-11.2-17-9.7-8.9-21.9-12.1-37-9.6zM33.4 66.2c-.4.6-.7 65.2-.5 108L33 194h19.9v-38.8c0-21.3 0-39.8.1-41.2.1-2.1 24.6 44.8 38.2 73.3l3.3 6.8 11-.3 11-.3V66l-3-.1c-9.5-.2-15.4-.1-16.1.4-.5.3-.9 18.9-.9 42 0 22.9-.2 41.3-.5 41.1-.3-.3-9.9-19.3-21.5-42.2l-21-41.6h-9.8c-5.5-.1-10.1.2-10.3.6z"/></svg>